<?xml version="1.0" encoding="utf-8"?>
<!-- Generator: Adobe Illustrator 16.0.0, SVG Export Plug-In . SVG Version: 6.00 Build 0)  -->
<!DOCTYPE svg PUBLIC "-//W3C//DTD SVG 1.1//EN" "http://www.w3.org/Graphics/SVG/1.1/DTD/svg11.dtd">
<svg version="1.1" id="Capa_1" xmlns="http://www.w3.org/2000/svg" xmlns:xlink="http://www.w3.org/1999/xlink" x="0px" y="0px"
	 width="283px" height="57px" viewBox="0 0 283 57" enable-background="new 0 0 283 57" xml:space="preserve">
<g>
	<g>
		<path fill="#FFFFFF" d="M134.2,17.112c2.16,0.864,4.176,2.088,6.12,4.392c-4.392-0.36-7.92,1.008-10.008,4.896
			c0.216-12.744-3.672-20.664-10.44-25.272v28.008l13.032,0.144l28.369-22.392C149.607,6.888,139.888,9.336,134.2,17.112z"/>
		<path fill="#FFFFFF" d="M30.52,20.64c2.88-5.184,8.064-7.056,16.704-4.032l0.936-1.296L50.608,12
			c-0.792-0.36-1.656-0.648-2.448-0.936c-12.24-4.248-27-0.72-30.96,9.72v3.528c1.944,7.416,17.784,5.904,22.968,3.528l3.744-6.048
			C34.768,24.672,30.304,24.312,30.52,20.64z"/>
		<path fill="#FFFFFF" d="M79.336,22.008c1.944-2.232,2.88-4.608,2.376-6.696c-0.288-1.152-1.08-2.232-2.376-3.096
			C76.24,9.912,70.48,8.76,64.36,9.624c-1.152,0.144-2.376,0.36-3.6,0.72c-5.544,1.44-10.008,4.104-12.6,6.984
			c-1.944,2.16-2.88,4.392-2.376,6.48c0.288,1.152,1.08,2.232,2.376,3.168c3.384,2.376,9.792,3.744,16.2,2.664
			c0.864-0.144,1.728-0.288,2.592-0.503C72.424,27.696,76.816,24.96,79.336,22.008z M66.88,21.936
			c-0.792,0.792-1.656,1.512-2.52,1.944c-1.512,0.792-3.096,0.792-3.96-0.072c-1.368-1.368-0.648-4.536,1.512-6.912
			c0.792-0.864,1.656-1.512,2.448-1.944c1.584-0.792,3.168-0.864,4.032,0.072C69.76,16.392,69.04,19.488,66.88,21.936z"/>
		<path fill="#FFFFFF" d="M109.936,9.552L88.984,9.984l-9.648,15.48L76.96,29.28l2.376,0.072l11.088,0.216
			c2.16-4.032,5.184-7.705,8.496-11.232c1.8-1.944,7.488-5.184,4.032,0.36l-6.84,10.728h13.392l6.408-10.584
			C119.944,12.072,116.92,9.48,109.936,9.552z"/>
		<path fill="#FFFFFF" d="M245.224,9.48c-7.704,1.368-12.959,4.32-16.056,7.56c-4.607,4.752-4.32,10.08,0,11.664
			c3.168,1.224,8.496,0.432,15.768-4.104l-2.375,4.608h2.663l10.368,0.072l11.881-19.584C258.544,8.328,251.2,8.4,245.224,9.48z
			 M245.224,21.576c-1.871,1.584-3.815,2.664-4.751,2.016c-1.513-2.016,1.439-5.76,4.751-7.776c1.872-1.152,3.888-1.728,5.185-1.152
			C251.128,15.528,248.176,19.2,245.224,21.576z"/>
		<polygon fill="#FFFFFF" points="171.064,9.696 168.328,9.696 158.248,9.696 146.08,29.208 159.473,29.208 168.328,14.304 		"/>
		<path fill="#FFFFFF" d="M220.527,18.264c-5.471-3.672-1.655-5.544,7.416-2.664l1.225-1.008l3.023-2.448
			c-0.792-0.576-1.799-1.008-3.023-1.44c-7.561-2.52-22.464-2.088-24.768,4.536c-0.504,1.8,0.576,3.6,2.735,5.4
			c2.808,2.736,3.169,4.392-1.8,3.744c-1.08-0.216-2.088-0.576-3.023-1.08c-0.433-0.288-0.864-0.576-1.225-0.864l-3.312,4.824
			c1.439,0.648,2.951,1.224,4.536,1.584c8.279,2.16,17.423,1.152,22.248-5.04C225.28,21.936,223.552,20.064,220.527,18.264z"/>
		<path fill="#FFFFFF" d="M206.92,9.696c-1.584-0.216-3.096-0.432-4.607-0.576c-6.912-0.72-12.744-0.504-17.641,0.36
			c-7.92,1.44-13.319,4.464-16.344,7.776c-4.176,4.608-3.96,9.648,0,11.376c3.168,1.296,8.568,0.576,15.984-4.032l-2.305,4.608
			h2.664l10.368,0.072l7.272-12.024L206.92,9.696z M184.672,21.576c-1.944,1.584-3.815,2.664-4.752,2.016
			c-1.512-2.016,1.44-5.76,4.752-7.776c1.872-1.152,3.816-1.728,5.185-1.152C190.576,15.528,187.624,19.2,184.672,21.576z"/>
	</g>
</g>
<g>
	<linearGradient id="SVGID_1_" gradientUnits="userSpaceOnUse" x1="25.25" y1="40" x2="142.25" y2="40">
		<stop  offset="0" style="stop-color:#FFFFFF"/>
		<stop  offset="0.1455" style="stop-color:#F7E65D"/>
		<stop  offset="0.8424" style="stop-color:#F5E22E"/>
		<stop  offset="1" style="stop-color:#FFFFFF"/>
	</linearGradient>
	<rect x="25.25" y="38" fill="url(#SVGID_1_)" width="117" height="4"/>
	<linearGradient id="SVGID_2_" gradientUnits="userSpaceOnUse" x1="25.25" y1="44" x2="142.25" y2="44">
		<stop  offset="0" style="stop-color:#FFFFFF"/>
		<stop  offset="0.023" style="stop-color:#F8F9FC"/>
		<stop  offset="0.0556" style="stop-color:#E6E9F2"/>
		<stop  offset="0.0941" style="stop-color:#C7CFE3"/>
		<stop  offset="0.137" style="stop-color:#9CAACD"/>
		<stop  offset="0.1836" style="stop-color:#667CB2"/>
		<stop  offset="0.2303" style="stop-color:#274692"/>
		<stop  offset="0.8121" style="stop-color:#274692"/>
		<stop  offset="0.8466" style="stop-color:#5F76AE"/>
		<stop  offset="0.8858" style="stop-color:#97A6CB"/>
		<stop  offset="0.9222" style="stop-color:#C4CDE1"/>
		<stop  offset="0.9545" style="stop-color:#E4E8F2"/>
		<stop  offset="0.9815" style="stop-color:#F8F9FB"/>
		<stop  offset="1" style="stop-color:#FFFFFF"/>
	</linearGradient>
	<rect x="25.25" y="42" fill="url(#SVGID_2_)" width="117" height="4"/>
	<linearGradient id="SVGID_3_" gradientUnits="userSpaceOnUse" x1="25.25" y1="47.75" x2="142.25" y2="47.75">
		<stop  offset="0" style="stop-color:#FFFFFF"/>
		<stop  offset="0.0096" style="stop-color:#FDF9F8"/>
		<stop  offset="0.0233" style="stop-color:#F8E6E6"/>
		<stop  offset="0.0394" style="stop-color:#F0C9C7"/>
		<stop  offset="0.0573" style="stop-color:#E59F9C"/>
		<stop  offset="0.0768" style="stop-color:#D76A65"/>
		<stop  offset="0.0973" style="stop-color:#C52A24"/>
		<stop  offset="0.103" style="stop-color:#C01710"/>
		<stop  offset="0.9091" style="stop-color:#C01710"/>
		<stop  offset="0.9288" style="stop-color:#D0544F"/>
		<stop  offset="0.9544" style="stop-color:#E49C99"/>
		<stop  offset="0.9757" style="stop-color:#F3D2D0"/>
		<stop  offset="0.9914" style="stop-color:#FCF3F2"/>
		<stop  offset="1" style="stop-color:#FFFFFF"/>
	</linearGradient>
	<rect x="25.25" y="45.75" fill="url(#SVGID_3_)" width="117" height="4"/>
	<g>
		<polygon fill="#FFFFFF" points="55.923,45.663 54.674,45.02 53.436,45.685 53.662,44.298 52.648,43.326 54.036,43.111 
			54.647,41.848 55.279,43.102 56.671,43.291 55.674,44.281 		"/>
		<polygon fill="#FFFFFF" points="66.985,45.663 65.736,45.02 64.499,45.685 64.725,44.298 63.71,43.326 65.099,43.111 
			65.709,41.848 66.342,43.102 67.734,43.291 66.736,44.281 		"/>
		<polygon fill="#FFFFFF" points="45.048,45.663 43.799,45.02 42.561,45.685 42.787,44.298 41.773,43.326 43.161,43.111 
			43.772,41.848 44.404,43.102 45.796,43.291 44.799,44.281 		"/>
		<polygon fill="#FFFFFF" points="88.673,45.663 87.424,45.02 86.186,45.685 86.412,44.298 85.398,43.326 86.786,43.111 
			87.397,41.848 88.029,43.102 89.421,43.291 88.424,44.281 		"/>
		<polygon fill="#FFFFFF" points="99.735,45.663 98.486,45.02 97.249,45.685 97.475,44.298 96.46,43.326 97.849,43.111 
			98.459,41.848 99.092,43.102 100.484,43.291 99.486,44.281 		"/>
		<polygon fill="#FFFFFF" points="110.548,45.663 109.299,45.02 108.061,45.685 108.287,44.298 107.273,43.326 108.661,43.111 
			109.272,41.848 109.904,43.102 111.296,43.291 110.299,44.281 		"/>
		<polygon fill="#FFFFFF" points="121.61,45.663 120.361,45.02 119.124,45.685 119.35,44.298 118.335,43.326 119.724,43.111 
			120.334,41.848 120.967,43.102 122.359,43.291 121.361,44.281 		"/>
		<polygon fill="#FFFFFF" points="77.798,45.663 76.549,45.02 75.311,45.685 75.537,44.298 74.523,43.326 75.911,43.111 
			76.522,41.848 77.154,43.102 78.546,43.291 77.549,44.281 		"/>
	</g>
</g>
<g>
	<path fill="#FEFEFE" d="M146.485,40.049h6.381v1.079h-5.046v3.009h4.698v1.079h-4.698v3.464h5.336v1.078h-6.671V40.049z"/>
	<path fill="#FFFFFF" d="M154.896,40.049h1.16v9.709h-1.16V40.049z"/>
	<path fill="#FFFFFF" d="M163.481,51.859h-1.161v-8.461h1.161v0.738c0.463-0.567,1.062-0.852,1.798-0.852
		c0.812,0,1.469,0.247,1.972,0.738c0.618,0.606,0.929,1.458,0.929,2.555c0,1.137-0.311,2.008-0.929,2.612
		c-0.503,0.493-1.16,0.738-1.972,0.738s-1.412-0.303-1.798-0.908V51.859z M164.061,44.818c-0.387,0.379-0.579,0.833-0.579,1.363
		v0.795c0,0.53,0.212,1.003,0.638,1.419c0.349,0.341,0.733,0.512,1.16,0.512c0.386,0,0.715-0.133,0.985-0.397
		c0.426-0.417,0.639-1.06,0.639-1.932c0-0.831-0.193-1.438-0.58-1.816c-0.31-0.303-0.658-0.454-1.044-0.454
		C164.814,44.308,164.409,44.478,164.061,44.818z"/>
	<path fill="#FFFFFF" d="M169.919,40.049h1.16v9.709h-1.16V40.049z"/>
	<path fill="#FFFFFF" d="M173.631,43.91c0.426-0.416,1.045-0.625,1.857-0.625c0.965,0,1.662,0.209,2.088,0.625
		c0.386,0.379,0.58,0.814,0.58,1.306v3.577c0,0.417,0.154,0.738,0.463,0.965h-1.392c-0.154-0.15-0.232-0.396-0.232-0.737
		c-0.58,0.567-1.314,0.852-2.204,0.852c-0.734,0-1.296-0.188-1.682-0.567c-0.349-0.341-0.521-0.738-0.521-1.192
		c0-0.53,0.173-0.966,0.521-1.307c0.386-0.378,0.928-0.624,1.624-0.737c0.465-0.076,0.87-0.171,1.219-0.284
		c0.501-0.114,0.85-0.228,1.043-0.341c0-0.303-0.115-0.567-0.348-0.796c-0.232-0.227-0.561-0.34-0.986-0.34
		c-0.542,0-0.928,0.113-1.159,0.34c-0.155,0.152-0.271,0.36-0.349,0.625h-1.276C172.994,44.743,173.244,44.289,173.631,43.91z
		 M176.995,46.522c-0.231,0.075-0.444,0.133-0.638,0.17c-0.658,0.151-1.159,0.265-1.508,0.34c-0.31,0.077-0.542,0.19-0.696,0.342
		c-0.193,0.189-0.289,0.397-0.289,0.624c0,0.266,0.096,0.492,0.289,0.682c0.116,0.113,0.367,0.171,0.754,0.171
		c0.657,0,1.198-0.208,1.624-0.625c0.271-0.265,0.425-0.454,0.464-0.568V46.522z"/>
	<path fill="#FFFFFF" d="M180.766,44.193c0.58-0.567,1.295-0.851,2.146-0.851c0.929,0,1.625,0.227,2.089,0.681
		c0.425,0.417,0.676,0.929,0.754,1.533h-1.276c-0.038-0.303-0.193-0.587-0.464-0.852c-0.232-0.228-0.58-0.341-1.044-0.341
		s-0.851,0.151-1.16,0.454c-0.464,0.454-0.695,1.079-0.695,1.874c0,0.758,0.212,1.344,0.638,1.761
		c0.309,0.303,0.696,0.454,1.159,0.454c0.541,0,0.967-0.151,1.277-0.454c0.309-0.304,0.464-0.701,0.464-1.193h1.275
		c-0.038,0.796-0.31,1.439-0.812,1.931c-0.502,0.493-1.237,0.738-2.204,0.738c-0.812,0-1.488-0.265-2.029-0.795
		c-0.696-0.681-1.044-1.514-1.044-2.498C179.838,45.613,180.146,44.8,180.766,44.193z"/>
	<path fill="#FFFFFF" d="M188.248,44.081c0.541-0.53,1.237-0.796,2.088-0.796c0.812,0,1.508,0.284,2.088,0.852
		c0.541,0.531,0.812,1.345,0.812,2.441h-4.698c0,0.796,0.193,1.383,0.58,1.761c0.348,0.341,0.792,0.512,1.334,0.512
		c0.541,0,0.929-0.114,1.16-0.341c0.27-0.265,0.406-0.568,0.406-0.909h1.275c-0.154,0.682-0.405,1.192-0.754,1.533
		c-0.503,0.492-1.199,0.738-2.088,0.738c-0.929,0-1.683-0.284-2.263-0.852c-0.619-0.605-0.928-1.42-0.928-2.442
		C187.262,45.557,187.59,44.725,188.248,44.081z M189.118,44.705c-0.271,0.265-0.445,0.587-0.522,0.965h3.307
		c0-0.378-0.155-0.718-0.464-1.022c-0.271-0.264-0.658-0.396-1.16-0.396C189.814,44.251,189.427,44.402,189.118,44.705z"/>
	<path fill="#FFFFFF" d="M199.095,43.285v1.25c-0.155-0.038-0.367-0.058-0.638-0.058c-0.58,0-1.122,0.247-1.624,0.738
		c-0.427,0.417-0.716,0.853-0.87,1.307v3.235h-1.16v-6.359h1.16v1.591c0.193-0.304,0.406-0.568,0.639-0.796
		C197.219,43.589,198.051,43.285,199.095,43.285z"/>
	<path fill="#FFFFFF" d="M209.129,40.049h1.161v9.709h-1.161v-0.794c-0.426,0.605-1.006,0.908-1.739,0.908
		c-0.812,0-1.45-0.227-1.914-0.682c-0.696-0.681-1.044-1.552-1.044-2.612c0-1.135,0.309-2.005,0.928-2.611
		c0.502-0.491,1.102-0.738,1.798-0.738c0.85,0,1.508,0.322,1.972,0.965V40.049z M206.287,44.705c-0.387,0.379-0.58,1.004-0.58,1.873
		c0,0.833,0.212,1.458,0.638,1.875c0.271,0.265,0.6,0.397,0.986,0.397c0.464,0,0.851-0.151,1.161-0.455
		c0.424-0.416,0.637-1.021,0.637-1.817c0-0.794-0.231-1.419-0.695-1.873c-0.311-0.303-0.678-0.454-1.103-0.454
		C206.944,44.251,206.596,44.402,206.287,44.705z"/>
	<path fill="#FFFFFF" d="M212.726,44.081c0.541-0.53,1.236-0.796,2.088-0.796c0.812,0,1.509,0.284,2.089,0.852
		c0.541,0.531,0.812,1.345,0.812,2.441h-4.698c0,0.796,0.193,1.383,0.58,1.761c0.348,0.341,0.792,0.512,1.334,0.512
		c0.541,0,0.928-0.114,1.16-0.341c0.271-0.265,0.405-0.568,0.405-0.909h1.277c-0.155,0.682-0.407,1.192-0.755,1.533
		c-0.503,0.492-1.199,0.738-2.088,0.738c-0.928,0-1.682-0.284-2.262-0.852c-0.62-0.605-0.929-1.42-0.929-2.442
		C211.739,45.557,212.067,44.725,212.726,44.081z M213.596,44.705c-0.271,0.265-0.445,0.587-0.522,0.965h3.307
		c0-0.378-0.155-0.718-0.465-1.022c-0.271-0.264-0.657-0.396-1.159-0.396C214.291,44.251,213.905,44.402,213.596,44.705z"/>
	<path fill="#FFFFFF" d="M223.166,43.398h1.276l2.088,5.055l2.089-5.055h1.275l-2.784,6.474h-1.16L223.166,43.398z"/>
	<path fill="#FFFFFF" d="M231.692,44.137c0.58-0.567,1.295-0.852,2.146-0.852c0.85,0,1.566,0.284,2.146,0.852
		c0.656,0.645,0.985,1.458,0.985,2.441c0,0.985-0.329,1.799-0.985,2.442c-0.58,0.567-1.297,0.852-2.146,0.852
		c-0.852,0-1.566-0.284-2.146-0.852c-0.657-0.644-0.986-1.457-0.986-2.442C230.706,45.595,231.035,44.781,231.692,44.137z
		 M232.679,44.762c-0.464,0.454-0.696,1.061-0.696,1.816c0,0.759,0.212,1.345,0.638,1.761c0.349,0.341,0.754,0.512,1.219,0.512
		c0.464,0,0.87-0.171,1.218-0.512c0.425-0.416,0.638-1.002,0.638-1.761c0-0.756-0.231-1.362-0.696-1.816
		c-0.31-0.303-0.695-0.454-1.159-0.454C233.374,44.308,232.987,44.459,232.679,44.762z"/>
	<path fill="#FFFFFF" d="M238.595,40.049h1.16v9.709h-1.16V40.049z"/>
	<path fill="#FFFFFF" d="M242.307,43.91c0.426-0.416,1.045-0.625,1.857-0.625c0.965,0,1.662,0.209,2.088,0.625
		c0.386,0.379,0.579,0.814,0.579,1.306v3.577c0,0.417,0.154,0.738,0.464,0.965h-1.392c-0.155-0.15-0.231-0.396-0.231-0.737
		c-0.581,0.567-1.315,0.852-2.204,0.852c-0.735,0-1.296-0.188-1.683-0.567c-0.348-0.341-0.521-0.738-0.521-1.192
		c0-0.53,0.174-0.966,0.521-1.307c0.387-0.378,0.929-0.624,1.624-0.737c0.464-0.076,0.87-0.171,1.218-0.284
		c0.502-0.114,0.851-0.228,1.045-0.341c0-0.303-0.116-0.567-0.349-0.796c-0.232-0.227-0.561-0.34-0.986-0.34
		c-0.542,0-0.928,0.113-1.16,0.34c-0.154,0.152-0.271,0.36-0.348,0.625h-1.276C241.669,44.743,241.92,44.289,242.307,43.91z
		 M245.672,46.522c-0.232,0.075-0.445,0.133-0.639,0.17c-0.658,0.151-1.16,0.265-1.508,0.34c-0.311,0.077-0.542,0.19-0.696,0.342
		c-0.193,0.189-0.289,0.397-0.289,0.624c0,0.266,0.096,0.492,0.289,0.682c0.116,0.113,0.367,0.171,0.755,0.171
		c0.656,0,1.197-0.208,1.623-0.625c0.271-0.265,0.425-0.454,0.465-0.568V46.522z"/>
	<path fill="#FFFFFF" d="M252.922,43.285v1.25c-0.155-0.038-0.368-0.058-0.639-0.058c-0.58,0-1.122,0.247-1.623,0.738
		c-0.427,0.417-0.717,0.853-0.87,1.307v3.235h-1.161v-6.359h1.161v1.591c0.192-0.304,0.405-0.568,0.638-0.796
		C251.045,43.589,251.877,43.285,252.922,43.285z"/>
</g>
</svg>
